<?xml version="1.0" encoding="UTF-8" standalone="no"?>
<!-- Created with Inkscape (http://www.inkscape.org/) -->

<svg
   xmlns:dc="http://purl.org/dc/elements/1.1/"
   xmlns:cc="http://creativecommons.org/ns#"
   xmlns:rdf="http://www.w3.org/1999/02/22-rdf-syntax-ns#"
   xmlns:svg="http://www.w3.org/2000/svg"
   xmlns="http://www.w3.org/2000/svg"
   xmlns:sodipodi="http://sodipodi.sourceforge.net/DTD/sodipodi-0.dtd"
   xmlns:inkscape="http://www.inkscape.org/namespaces/inkscape"
   width="1.8221848in"
   height="1.8229172in"
   viewBox="0 0 1.8221848 1.8229172"
   version="1.1"
   id="SVGRoot"
   inkscape:version="0.92.3 (2405546, 2018-03-11)"
   sodipodi:docname="corner-ribbon.svg">
  <sodipodi:namedview
     id="base"
     pagecolor="#ffffff"
     bordercolor="#666666"
     borderopacity="1.0"
     inkscape:pageopacity="0.0"
     inkscape:pageshadow="2"
     inkscape:zoom="2.8"
     inkscape:cx="103.92888"
     inkscape:cy="37.279415"
     inkscape:document-units="px"
     inkscape:current-layer="g893"
     showgrid="true"
     inkscape:window-width="1920"
     inkscape:window-height="1013"
     inkscape:window-x="-9"
     inkscape:window-y="-9"
     inkscape:window-maximized="1"
     units="in"
     objecttolerance="10"
     gridtolerance="10"
     guidetolerance="10"
     fit-margin-top="0"
     fit-margin-left="0"
     fit-margin-right="0"
     fit-margin-bottom="0">
    <inkscape:grid
       type="xygrid"
       id="grid1442"
       spacingx="0.26041667"
       spacingy="0.26041667"
       dotted="false"
       enabled="true"
       visible="true"
       originx="-2.7165128"
       originy="-7.2632634" />
  </sodipodi:namedview>
  <defs
     id="defs883" />
  <metadata
     id="metadata886">
    <rdf:RDF>
      <cc:Work
         rdf:about="">
        <dc:format>image/svg+xml</dc:format>
        <dc:type
           rdf:resource="http://purl.org/dc/dcmitype/StillImage" />
        <dc:title></dc:title>
        <dc:creator>
          <cc:Agent>
            <dc:title>Jacob Strieb</dc:title>
          </cc:Agent>
        </dc:creator>
      </cc:Work>
    </rdf:RDF>
  </metadata>
  <g
     id="layer1"
     inkscape:groupmode="layer"
     inkscape:label="Layer 1"
     transform="translate(-2.716513,-1.9138189)">
    <g
       id="g893">
      <path
         id="rect833"
         transform="scale(0.01041667)"
         d="m 260.85547,183.72656 -0.0703,0.0703 174.92968,174.92968 V 303.13477 L 316.30664,183.72656 Z"
         style="opacity:1;fill:#000000;fill-opacity:1;stroke:none;stroke-width:1.44899952;stroke-linecap:butt;stroke-linejoin:round;stroke-miterlimit:4;stroke-dasharray:none;stroke-dashoffset:0;stroke-opacity:1;paint-order:normal"
         inkscape:connector-curvature="0" />
      <g
         aria-label="View on GitHub"
         transform="matrix(0.00472019,0.00472019,-0.00472019,0.00472019,4.2692555,-0.80996202)"
         style="font-style:normal;font-variant:normal;font-weight:bold;font-stretch:normal;font-size:33.33333206px;line-height:125%;font-family:'Palatino Linotype';-inkscape-font-specification:'Palatino Linotype Bold';text-align:start;text-anchor:start;opacity:1;fill:#ffffff;fill-opacity:1;stroke:none;stroke-width:20;stroke-linecap:butt;stroke-linejoin:round;stroke-miterlimit:4;stroke-dasharray:none;stroke-dashoffset:0;stroke-opacity:1;paint-order:normal"
         id="flowRoot818">
        <path
           d="m 216.10547,412.4816 -0.16276,0.16276 q -1.13933,0.11393 -1.46485,0.27669 -0.30924,0.14648 -0.66731,0.73242 -0.39063,0.63477 -1.39974,3.0599 l -1.1556,2.75065 -2.18099,5.30599 q -2.81576,6.83593 -3.79232,9.61914 h -2.47396 l -7.4707,-18.11524 q -1.18815,-2.83203 -1.66016,-3.25521 -0.35807,-0.34179 -1.98567,-0.37434 l -0.16276,-0.17904 v -1.07422 l 0.17903,-0.17904 q 1.70899,0.0977 4.31315,0.0977 3.25521,0 5.92448,-0.0977 l 0.16276,0.17904 v 1.0905 l -0.14648,0.16276 q -1.64388,0.0163 -2.16472,0.29296 -0.27669,0.16276 -0.27669,0.55339 0,0.42318 1.05794,3.09245 l 0.76498,1.93685 4.11784,10.17252 3.61328,-9.06575 q 0.21159,-0.52084 0.97656,-2.62045 1.10677,-3.02734 1.10677,-3.5319 0,-0.53711 -0.35807,-0.65104 -0.35807,-0.11393 -2.18099,-0.17903 l -0.16276,-0.16276 v -1.10678 l 0.17903,-0.16276 q 1.8392,0.0977 3.82487,0.0977 1.41602,0 3.4668,-0.0977 l 0.17904,0.17904 z"
           style="fill:#ffffff"
           id="path920" />
        <path
           d="m 223.77148,412.8885 q 0,1.04166 -0.73242,1.79036 -0.73242,0.73242 -1.75781,0.73242 -1.04167,0 -1.77409,-0.73242 -0.73242,-0.7487 -0.73242,-1.79036 0,-1.07422 0.73242,-1.80664 0.7487,-0.73243 1.77409,-0.73243 1.00911,0 1.74153,0.73243 0.7487,0.73242 0.7487,1.80664 z m 2.2461,21.24023 -0.16276,0.16276 q -1.54623,-0.11393 -4.45964,-0.11393 -2.91341,0 -4.44336,0.11393 l -0.16276,-0.16276 v -0.99284 l 0.16276,-0.16276 q 1.5625,-0.0488 1.93685,-0.24414 0.32552,-0.14648 0.35807,-0.78125 0.11394,-2.11589 0.11394,-4.54102 v -2.32747 q 0,-3.15755 -0.24414,-3.74349 -0.13021,-0.32552 -0.69987,-0.4069 -0.19532,-0.0325 -1.41602,-0.0814 l -0.16276,-0.16276 v -0.91146 l 0.16276,-0.17903 q 3.125,-0.2767 6.29883,-1.35092 l 0.34179,0.21159 q -0.21158,2.96224 -0.21158,4.99675 v 5.19205 q 0,1.18815 0.11393,3.30404 0.0325,0.63477 0.35807,0.78125 0.37435,0.19531 1.93685,0.24414 l 0.17904,0.16276 z m -4.6224,1.31836 z"
           style="fill:#ffffff"
           id="path922" />
        <path
           d="m 242.47265,425.0467 q 0,0.27669 -0.0163,0.83008 l -0.17904,0.22786 q -2.14844,0.58594 -5.69661,0.58594 -0.63477,0 -1.92058,0.0326 -1.2858,0.0163 -1.93684,0.0163 0.0977,2.39258 1.48112,3.95508 1.44856,1.67643 3.77604,1.67643 1.5625,0 3.71093,-1.07422 l 0.39063,0.472 -0.71615,1.61133 q -2.3763,1.51367 -5.1595,1.51367 -3.66211,0 -5.69662,-2.06705 -2.01822,-2.06706 -2.01822,-5.89193 0,-4.54102 2.16471,-6.21745 2.99479,-2.3112 5.68034,-2.3112 2.91341,0 4.50846,1.67644 1.6276,1.72526 1.6276,4.96419 z m -4.24804,-0.42318 q 0,-4.39453 -2.73438,-4.39453 -2.88086,0 -2.88086,4.36198 v 0.35807 q 0.94401,0.14649 3.35287,0.14649 1.25325,0 2.24609,-0.14649 0.0163,-0.22786 0.0163,-0.32552 z m -1.9694,10.82357 z m 0,-17.83854 z"
           style="fill:#ffffff"
           id="path924" />
        <path
           d="m 270.972,419.9523 -0.17903,0.16276 q -0.96029,0.0325 -1.22071,0.14648 -0.26041,0.0977 -0.45572,0.37435 -0.17904,0.26042 -0.6836,1.62761 -0.60221,1.6276 -1.18815,3.38541 l -1.88802,5.66406 q -0.24414,0.71615 -0.48828,1.59506 l -0.43945,1.54622 h -2.66928 l -1.77408,-4.36198 -2.62045,-6.03841 q -2.24609,4.70378 -4.0039,9.0332 l -0.55339,1.36719 h -2.63672 q -0.0488,-0.13021 -0.29297,-1.23698 -0.14648,-0.63476 -0.4069,-1.57877 l -2.39257,-8.52865 q -0.53711,-1.88802 -0.7487,-2.3763 -0.16276,-0.32552 -0.42318,-0.43946 -0.26042,-0.1302 -1.57878,-0.17903 l -0.16276,-0.17904 v -0.96028 l 0.17904,-0.16276 q 1.26953,0.0488 4.19922,0.0488 2.99479,0 4.45963,-0.0488 l 0.17904,0.16276 v 0.97656 l -0.17904,0.14648 q -1.26953,0 -1.6927,0.11393 -0.42318,0.11394 -0.42318,0.48829 0,0.34179 0.16276,0.96028 l 1.9694,7.50326 3.90625,-8.69141 q 0.4069,-0.97656 0.87891,-2.06706 h 1.66015 l 4.60612,10.75847 1.59505,-4.85026 q 0.89519,-2.7181 0.89519,-3.51563 0,-0.4069 -0.2767,-0.50456 -0.27669,-0.0976 -1.82291,-0.17903 l -0.17904,-0.16276 v -0.96029 l 0.19531,-0.17903 q 1.22071,0.0488 3.38542,0.0488 1.59505,0 2.92969,-0.0488 l 0.17903,0.16276 z"
           style="fill:#ffffff"
           id="path926" />
        <path
           d="m 296.98112,426.10464 q 0,5.76172 -3.8737,7.79623 -1.88802,0.99283 -4.31315,0.99283 -3.74349,0 -5.71289,-2.16471 -1.95312,-2.16471 -1.95312,-6.20117 0,-5.58268 3.80859,-7.43815 1.87174,-0.91146 4.3457,-0.91146 5.19206,0 6.88477,3.597 0.8138,1.72526 0.8138,4.32943 z m -4.50846,1.33464 q 0,-4.05274 -0.89519,-5.79427 -0.8789,-1.75782 -2.70182,-1.75782 -3.23893,0 -3.23893,5.8431 0,7.50326 3.62956,7.50326 2.26237,0 2.88085,-2.49024 0.32553,-1.30208 0.32553,-3.30403 z m -3.25521,8.00781 z m 0,-17.83854 z"
           style="fill:#ffffff"
           id="path928" />
        <path
           d="m 317.99349,434.11245 -0.16276,0.17904 q -1.79037,-0.11393 -3.02735,-0.11393 -1.13932,0 -3.32031,0.11393 l -0.16276,-0.16276 q 0.29297,-3.62956 0.29297,-5.59896 v -3.1901 q 0,-3.97136 -2.86458,-3.97136 -1.4974,0 -2.34375,1.02539 -0.71615,0.86263 -0.71615,1.74154 v 3.04362 q 0,4.21549 0.21159,5.17578 0.13021,0.56966 1.88802,0.60221 l 0.16276,0.16277 v 0.99283 l -0.16276,0.16276 q -1.38346,-0.0976 -4.13411,-0.0976 -2.91341,0 -4.44336,0.11393 l -0.16276,-0.16276 v -0.99284 l 0.16276,-0.16276 q 1.5625,-0.0488 1.93685,-0.24414 0.32552,-0.14648 0.35807,-0.78125 0.11393,-2.11589 0.11393,-4.54102 v -2.32747 q 0,-3.25521 -0.24414,-3.74349 -0.16276,-0.32552 -0.69987,-0.4069 -0.19531,-0.0325 -1.41601,-0.0814 l -0.16276,-0.16276 v -0.91146 l 0.16276,-0.17903 q 2.92968,-0.2767 6.16862,-1.35092 l 0.35807,0.21159 -0.0325,2.73438 2.79948,-2.34375 q 1.07421,-0.43946 2.36002,-0.43946 2.58789,0 3.8737,1.5625 1.04167,1.26954 1.04167,3.72722 0,0.27669 -0.0651,2.26237 -0.0651,1.98567 -0.0651,2.83203 0,2.45768 0.0814,3.14127 0.0814,0.66732 0.37435,0.84636 0.29296,0.17903 1.6927,0.21159 l 0.14649,0.16276 z"
           style="fill:#ffffff"
           id="path930" />
        <path
           d="m 353.21484,425.95816 -0.16276,0.17903 q -1.00911,0.24414 -1.17187,0.6836 -0.16276,0.42317 -0.16276,3.28776 0,1.38346 0.13021,2.73437 -5.4362,2.05078 -9.86329,2.05078 -5.82682,0 -9.4401,-3.2552 -3.597,-3.27149 -3.597,-8.903 0,-7.34049 6.36393,-10.46549 2.91341,-1.4323 7.4056,-1.4323 2.60416,0 5.27343,0.56967 2.19727,0.472 3.4668,1.07422 l 0.14648,0.29296 q -0.42317,1.4323 -0.69987,4.98047 l -0.17903,0.16276 h -0.97656 l -0.16276,-0.16276 q 0,-0.30924 -0.0651,-1.26953 -0.0651,-0.97656 -0.16276,-1.36719 -0.71614,-0.97656 -2.44141,-1.66015 -1.85546,-0.71615 -4.0039,-0.71615 -5.76172,0 -7.95899,4.65495 -1.00911,2.14844 -1.00911,4.98047 0,4.52474 2.40885,7.50325 2.50651,3.09245 6.5267,3.09245 2.13216,0 4.11784,-0.91146 0.11393,-1.13932 0.11393,-3.125 0,-1.61133 -0.11393,-1.95312 -0.0977,-0.26042 -0.61849,-0.37435 -0.43946,-0.0977 -2.75066,-0.24414 l -0.17903,-0.16276 v -1.02539 l 0.17903,-0.16276 q 2.36003,0.0651 4.94792,0.0488 1.4974,-0.0163 4.47591,-0.0488 l 0.16276,0.16276 z"
           style="fill:#ffffff"
           id="path932" />
        <path
           d="m 362.76887,412.8885 q 0,1.04166 -0.73242,1.79036 -0.73242,0.73242 -1.75781,0.73242 -1.04167,0 -1.77409,-0.73242 -0.73242,-0.7487 -0.73242,-1.79036 0,-1.07422 0.73242,-1.80664 0.74869,-0.73243 1.77409,-0.73243 1.00911,0 1.74153,0.73243 0.7487,0.73242 0.7487,1.80664 z m 2.24609,21.24023 -0.16276,0.16276 q -1.54622,-0.11393 -4.45963,-0.11393 -2.91341,0 -4.44336,0.11393 l -0.16276,-0.16276 v -0.99284 l 0.16276,-0.16276 q 1.5625,-0.0488 1.93685,-0.24414 0.32552,-0.14648 0.35807,-0.78125 0.11393,-2.11589 0.11393,-4.54102 v -2.32747 q 0,-3.15755 -0.24414,-3.74349 -0.13021,-0.32552 -0.69987,-0.4069 -0.19531,-0.0325 -1.41601,-0.0814 l -0.16276,-0.16276 v -0.91146 l 0.16276,-0.17903 q 3.125,-0.2767 6.29882,-1.35092 l 0.3418,0.21159 q -0.21159,2.96224 -0.21159,4.99675 v 5.19205 q 0,1.18815 0.11394,3.30404 0.0325,0.63477 0.35807,0.78125 0.37435,0.19531 1.93685,0.24414 l 0.17903,0.16276 z m -4.62239,1.31836 z"
           style="fill:#ffffff"
           id="path934" />
        <path
           d="m 376.81509,432.0454 q -0.11393,0.1302 -0.69987,0.68359 -0.96028,0.91146 -1.64388,1.66016 -0.79752,0.26041 -1.61132,0.26041 -2.26237,0 -3.30404,-1.31836 -0.43945,-0.56966 -0.58594,-1.31836 -0.16276,-0.89518 -0.14648,-2.34375 l 0.0488,-3.88997 v -4.06901 h -0.43946 l -0.86263,0.0326 h -0.66732 l -0.17903,-0.14648 V 421.173 l 0.13021,-0.24414 q 0.29297,-0.19531 0.91145,-0.58594 0.73243,-0.45573 1.10678,-0.76497 v -2.21354 q 0,-1.38347 -0.13021,-2.92969 1.2207,-0.39062 1.9694,-0.68359 0.76497,-0.30925 2.14844,-0.99284 l 0.42317,0.32552 q -0.19531,2.01823 -0.27669,3.61328 l -0.14648,2.81575 h 0.5371 q 1.77409,0 3.0599,-0.11393 l 0.17904,0.17904 -0.22787,1.9043 -0.16276,0.16276 h -3.38541 v 5.51757 q 0,2.653 0.0651,3.125 0.0814,0.6836 0.56966,1.10677 0.50456,0.42318 1.35091,0.42318 0.66732,0 1.61133,-0.35807 z"
           style="fill:#ffffff"
           id="path936" />
        <path
           d="m 403.83332,434.11245 -0.16276,0.16276 q -1.61133,-0.0976 -5.01302,-0.0976 -3.48307,0 -5.01302,0.0976 l -0.16276,-0.14648 v -1.10677 l 0.17904,-0.16276 q 1.66015,-0.0977 1.90429,-0.16276 0.47201,-0.13021 0.55339,-0.60222 0.21159,-1.17187 0.21159,-5.04557 v -3.92252 q -0.83008,-0.0814 -5.27344,-0.0814 -4.10156,0 -5.40365,0.0814 v 3.92252 q 0,3.8737 0.21159,5.04557 0.0814,0.47201 0.55339,0.60222 0.24414,0.0651 1.9043,0.16276 l 0.16276,0.16276 v 1.09049 l -0.14649,0.16276 q -1.6276,-0.0976 -5.01302,-0.0976 -3.49935,0 -5.01302,0.0976 l -0.16276,-0.14648 v -1.10677 l 0.16276,-0.16276 q 1.66016,-0.0977 1.9043,-0.16276 0.472,-0.13021 0.55338,-0.60222 0.21159,-1.17187 0.21159,-5.04557 v -8.61002 q 0,-3.8737 -0.21159,-5.04558 -0.0814,-0.472 -0.55338,-0.60221 -0.24414,-0.0651 -1.9043,-0.16276 l -0.16276,-0.16276 v -1.10677 l 0.16276,-0.14649 q 1.5625,0.0977 5.01302,0.0977 3.5319,0 5.01302,-0.0977 l 0.14649,0.14649 v 1.12305 l -0.16276,0.14648 q -1.66016,0.0977 -1.9043,0.16276 -0.47201,0.13021 -0.55339,0.60221 -0.21159,1.17188 -0.21159,5.04558 v 2.68554 q 1.72526,0.0814 4.75261,0.0814 4.7526,0 5.92448,-0.0814 v -2.68554 q 0,-3.8737 -0.21159,-5.04558 -0.0814,-0.472 -0.55339,-0.60221 -0.24414,-0.0651 -1.90429,-0.16276 l -0.17904,-0.16276 v -1.10677 l 0.16276,-0.14649 q 1.57878,0.0977 5.01302,0.0977 3.54818,0 5.01302,-0.0977 l 0.16276,0.14649 v 1.12305 l -0.14648,0.14648 q -1.69271,0.0977 -1.92058,0.16276 -0.472,0.13021 -0.55338,0.60221 -0.21159,1.17188 -0.21159,5.04558 v 8.61002 q 0,3.8737 0.21159,5.04557 0.0814,0.47201 0.55338,0.60222 0.24415,0.0651 1.9043,0.16276 l 0.16276,0.16276 z"
           style="fill:#ffffff"
           id="path938" />
        <path
           d="m 424.45507,434.09618 -0.16276,0.16276 q -2.4414,-0.0814 -3.07617,-0.0814 -0.53711,0 -1.59505,0.0325 -1.05794,0.0488 -1.57878,0.0488 l -0.13021,-0.13021 q 0.13021,-1.33464 0.13021,-2.53906 -0.84635,0.63476 -2.96224,2.70182 -1.05794,0.4069 -2.26237,0.4069 -2.19726,0 -3.46679,-1.18815 -1.26953,-1.20443 -1.26953,-3.45052 0,-0.27669 0.0325,-1.17188 0.0326,-0.89518 0.0326,-1.72526 v -2.08333 q 0,-3.22266 -0.24414,-3.74349 -0.16276,-0.32552 -0.69987,-0.4069 -0.19531,-0.0325 -1.43229,-0.0814 l -0.16276,-0.16276 v -0.91146 l 0.16276,-0.17903 q 3.10872,-0.2767 6.29883,-1.35092 l 0.35807,0.21159 q -0.21159,2.70182 -0.21159,4.99675 v 3.17382 q 0,2.22982 0.14648,3.04362 0.16276,0.97657 0.76498,1.48112 0.61849,0.50456 1.64388,0.50456 1.26953,0 2.22982,-0.8138 0.91145,-0.8138 0.96028,-1.85547 0.0325,-0.79753 0.0325,-0.99284 v -2.91341 q 0,-3.1901 -0.24414,-3.74349 -0.14648,-0.32552 -0.68359,-0.4069 -0.19531,-0.0325 -1.43229,-0.0814 l -0.17904,-0.16276 v -0.91146 l 0.17904,-0.17903 q 3.09245,-0.2767 6.29883,-1.35092 l 0.34179,0.21159 q -0.21159,2.44141 -0.21159,4.99675 v 5.11067 q 0,3.43425 0.19532,3.88998 0.0976,0.22786 0.32552,0.29297 0.39062,0.11393 1.69271,0.19531 l 0.17903,0.16276 z m -9.4401,-16.48763 z m 0,17.83854 z"
           style="fill:#ffffff"
           id="path940" />
        <path
           d="m 443.92122,424.81883 q 0,2.94597 -1.39974,5.09441 -0.60221,0.92773 -1.09049,1.30208 -0.48828,0.37435 -2.06706,1.48112 -0.3418,0.24414 -1.83919,1.30208 -0.78125,0.55339 -1.77409,0.76498 -0.61849,0.1302 -1.38346,0.1302 -1.92058,0 -4.08529,-1.35091 l -1.51367,1.22071 -0.73242,-0.26042 q 0.30924,-5.17578 0.30924,-9.01693 v -6.39648 q 0,-0.84636 -0.0814,-3.9388 -0.0163,-0.86263 -0.0814,-1.54623 -0.0814,-0.84635 -0.86263,-0.99284 -0.17904,-0.0326 -1.35091,-0.0814 l -0.16276,-0.17903 v -0.89519 l 0.16276,-0.17903 q 3.10872,-0.32552 6.29883,-1.35091 l 0.35807,0.19531 q -0.21159,6.08724 -0.21159,9.42383 v 1.72526 l 1.9694,-1.64388 q 1.46485,-1.22071 3.36914,-1.22071 3.93881,0 5.45248,3.125 0.71614,1.48112 0.71614,3.28776 z m -4.18294,1.82292 q 0,-2.39258 -1.10677,-3.82487 -1.09049,-1.43229 -2.94596,-1.43229 -1.07422,0 -2.06706,0.56966 -0.83008,0.47201 -1.20443,1.0905 v 7.68229 q 1.22071,1.80664 3.36914,1.80664 1.92058,0 2.96224,-1.66016 0.99284,-1.57877 0.99284,-4.23177 z"
           style="fill:#ffffff"
           id="path942" />
      </g>
    </g>
  </g>
</svg>
