<?xml version="1.0" encoding="UTF-8" standalone="no"?>
<!-- Created with Inkscape (http://www.inkscape.org/) -->

<svg
   xmlns:dc="http://purl.org/dc/elements/1.1/"
   xmlns:cc="http://creativecommons.org/ns#"
   xmlns:rdf="http://www.w3.org/1999/02/22-rdf-syntax-ns#"
   xmlns:svg="http://www.w3.org/2000/svg"
   xmlns="http://www.w3.org/2000/svg"
   xmlns:sodipodi="http://sodipodi.sourceforge.net/DTD/sodipodi-0.dtd"
   xmlns:inkscape="http://www.inkscape.org/namespaces/inkscape"
   width="800"
   height="800"
   viewBox="0 0 8.3333336 8.3333337"
   version="1.1"
   id="SVGRoot"
   inkscape:version="0.92.3 (2405546, 2018-03-11)"
   sodipodi:docname="favicon.ico.svg"
   inkscape:export-filename="C:\Users\jacobstrieb\Dropbox\Programming\Javascript\password-redirect\favicon.png"
   inkscape:export-xdpi="100"
   inkscape:export-ydpi="100">
  <sodipodi:namedview
     id="base"
     pagecolor="#ffffff"
     bordercolor="#666666"
     borderopacity="1.0"
     inkscape:pageopacity="0.0"
     inkscape:pageshadow="2"
     inkscape:zoom="0.5"
     inkscape:cx="164.00002"
     inkscape:cy="474.33811"
     inkscape:document-units="px"
     inkscape:current-layer="layer1"
     showgrid="true"
     inkscape:window-width="1920"
     inkscape:window-height="1013"
     inkscape:window-x="-9"
     inkscape:window-y="-9"
     inkscape:window-maximized="1"
     units="px"
     objecttolerance="10"
     gridtolerance="10"
     guidetolerance="10"
     fit-margin-top="0"
     fit-margin-left="0"
     fit-margin-right="0"
     fit-margin-bottom="0">
    <inkscape:grid
       type="xygrid"
       id="grid1442"
       spacingx="0.26041667"
       spacingy="0.26041667"
       dotted="false"
       enabled="true"
       visible="true"
       originx="-0.53531041"
       originy="-2.1965141" />
  </sodipodi:namedview>
  <defs
     id="defs883" />
  <metadata
     id="metadata886">
    <rdf:RDF>
      <cc:Work
         rdf:about="">
        <dc:format>image/svg+xml</dc:format>
        <dc:type
           rdf:resource="http://purl.org/dc/dcmitype/StillImage" />
        <dc:title></dc:title>
        <dc:creator>
          <cc:Agent>
            <dc:title>Jacob Strieb</dc:title>
          </cc:Agent>
        </dc:creator>
      </cc:Work>
    </rdf:RDF>
  </metadata>
  <g
     id="layer1"
     inkscape:groupmode="layer"
     inkscape:label="Layer 1"
     transform="translate(-0.5353104,-0.47015284)">
    <path
       inkscape:connector-curvature="0"
       id="path854"
       d="m 4.706715,0.470315 c -1.40495,0 -2.558,1.11455 -2.56825,2.48815 h -4.9e-4 v 0.01846 0.93 h -0.061 c -0.277,0 -0.5,0.2185 -0.5,0.4895 v 3.9174 c 0,0.2715 0.223,0.4895 0.5,0.4895 h 5.25 c 0.277,0 0.5,-0.2185 0.5,-0.4895 v -3.9174 c 0,-0.2715 -0.223,-0.4895 -0.5,-0.4895 h -0.061 V 2.976825 2.95846 h -4.9e-4 C 7.25546,1.58486 6.111635,0.47031 4.706715,0.470315 Z m 0,0.97325 c 0.8708,0 1.56565,0.6805 1.56565,1.5333 h -10e-5 c -9.5e-5,0.56665 3.5e-5,0.7114 10e-5,0.9301 h -3.13125 v -0.9301 c 0,-0.8528 0.69485,-1.5333 1.5656,-1.5333 z"
       style="opacity:1;fill:#000000;fill-opacity:1;stroke:none;stroke-width:0.3098;stroke-linecap:butt;stroke-linejoin:round;stroke-miterlimit:4;stroke-dasharray:none;stroke-dashoffset:0;stroke-opacity:1;paint-order:normal" />
  </g>
</svg>
